<svg xmlns="http://www.w3.org/2000/svg" viewBox="0 0 1200 700" width="1200" height="700">
  <style>text { font-family: SimSun, '宋体', serif; fill: #111827; }</style>
  <defs><marker id="a" markerWidth="8" markerHeight="6" refX="7" refY="3" orient="auto"><polygon points="0 0,8 3,0 6" fill="#2563eb"/></marker></defs>
  <rect width="1200" height="700" fill="#ffffff"/>
  <text x="600" y="52" text-anchor="middle" font-size="44" font-weight="700">云计算环境的组成</text>
  <g>
    <rect x="120" y="90" width="960" height="105" rx="16" fill="#eff6ff" stroke="#93c5fd" stroke-width="3"/>
    <text x="255" y="153" text-anchor="middle" font-size="34" font-weight="700">访问层</text>
    <text x="500" y="153" text-anchor="middle" font-size="34">门户</text>
    <text x="700" y="153" text-anchor="middle" font-size="34">命令接口</text>
    <text x="900" y="153" text-anchor="middle" font-size="34">应用接口</text>
  </g>
  <path d="M600 198 V226" stroke="#2563eb" stroke-width="4" marker-end="url(#a)"/>
  <g>
    <rect x="120" y="230" width="960" height="120" rx="16" fill="#f0fdfa" stroke="#5eead4" stroke-width="3"/>
    <text x="255" y="300" text-anchor="middle" font-size="34" font-weight="700">管理服务</text>
    <text x="475" y="280" text-anchor="middle" font-size="34">身份·目录</text>
    <text x="735" y="280" text-anchor="middle" font-size="34">配额·调度</text>
    <text x="940" y="280" text-anchor="middle" font-size="34">监控·计量</text>
    <text x="710" y="330" text-anchor="middle" font-size="34">策略、自动化与生命周期</text>
  </g>
  <path d="M600 353 V381" stroke="#2563eb" stroke-width="4" marker-end="url(#a)"/>
  <g>
    <rect x="120" y="385" width="960" height="110" rx="16" fill="#f0fdf4" stroke="#86efac" stroke-width="3"/>
    <text x="255" y="452" text-anchor="middle" font-size="34" font-weight="700">资源池</text>
    <text x="480" y="452" text-anchor="middle" font-size="34">计算</text>
    <text x="660" y="452" text-anchor="middle" font-size="34">网络</text>
    <text x="840" y="452" text-anchor="middle" font-size="34">存储</text>
    <text x="1010" y="452" text-anchor="middle" font-size="34">平台</text>
  </g>
  <path d="M600 498 V526" stroke="#2563eb" stroke-width="4" marker-end="url(#a)"/>
  <g>
    <rect x="120" y="530" width="960" height="105" rx="16" fill="#f9fafb" stroke="#9ca3af" stroke-width="3"/>
    <text x="255" y="594" text-anchor="middle" font-size="34" font-weight="700">物理基础</text>
    <text x="500" y="594" text-anchor="middle" font-size="34">服务器</text>
    <text x="700" y="594" text-anchor="middle" font-size="34">网络设备</text>
    <text x="930" y="594" text-anchor="middle" font-size="34">存储与机房</text>
  </g>
  <text x="600" y="682" text-anchor="middle" font-size="34" fill="#6b7280">安全与运营贯穿访问、管理、资源和基础设施各层</text>
</svg>
