<svg xmlns="http://www.w3.org/2000/svg" viewBox="0 0 1600 900" width="1600" height="900">
  <style>text{font-family:'Times New Roman',SimSun,'宋体',serif;font-size:40px;fill:#172033}.title{font-weight:700}.service{fill:#2563eb;font-weight:700}.white{fill:#ffffff}</style>
  <defs><marker id="a" markerWidth="8" markerHeight="6" refX="7" refY="3" orient="auto"><polygon points="0 0,8 3,0 6" fill="#64748b"/></marker></defs>
  <rect width="1600" height="900" fill="#ffffff"/>
  <text x="800" y="72" text-anchor="middle" font-size="50" class="title">Horizon资源页面与OpenStack服务关系</text>
  <rect x="70" y="120" width="1460" height="700" rx="28" fill="#ffffff" stroke="#94a3b8" stroke-width="4"/>
  <rect x="70" y="120" width="1460" height="90" rx="28" fill="#172033"/><text x="115" y="177" font-size="42" class="title white">项目资源</text><text x="1475" y="177" text-anchor="end" font-size="40" class="white">项目：service</text>
  <rect x="70" y="210" width="245" height="610" fill="#f1f5f9"/><g font-size="40"><text x="120" y="295">概览</text><text x="120" y="375">实例</text><text x="120" y="455">镜像</text><text x="120" y="535">网络</text><text x="120" y="615">卷</text></g>
  <g text-anchor="middle">
    <g><rect x="390" y="285" width="250" height="170" rx="22" fill="#eff6ff" stroke="#60a5fa" stroke-width="4"/><text x="515" y="345" font-size="44" class="title">实例页面</text><text x="515" y="405" font-size="42" class="service">Nova</text></g>
    <g><rect x="710" y="285" width="250" height="170" rx="22" fill="#f0fdfa" stroke="#2dd4bf" stroke-width="4"/><text x="835" y="345" font-size="44" class="title">镜像页面</text><text x="835" y="405" font-size="42" class="service">Glance</text></g>
    <g><rect x="1030" y="285" width="250" height="170" rx="22" fill="#f0fdf4" stroke="#4ade80" stroke-width="4"/><text x="1155" y="345" font-size="44" class="title">网络页面</text><text x="1155" y="405" font-size="42" class="service">Neutron</text></g>
    <g><rect x="1340" y="285" width="170" height="170" rx="22" fill="#fff7ed" stroke="#fb923c" stroke-width="4"/><text x="1425" y="345" font-size="42" class="title">卷</text><text x="1425" y="405" font-size="38" class="service">Cinder</text></g>
  </g>
  <rect x="390" y="585" width="1100" height="135" rx="24" fill="#f8fafc" stroke="#94a3b8" stroke-width="4"/>
  <text x="940" y="642" text-anchor="middle" font-size="44" class="title">Keystone：项目、用户、角色和配额边界</text>
  <text x="940" y="697" text-anchor="middle" font-size="40">页面展示的是同一项目作用域中的不同服务资源</text>
  <g fill="none" stroke="#64748b" stroke-width="4" marker-end="url(#a)"><path d="M515 465 V575"/><path d="M835 465 V575"/><path d="M1155 465 V575"/><path d="M1425 465 V575"/></g>
  <path d="M640 370 H700" fill="none" stroke="#2563eb" stroke-width="5" marker-end="url(#a)"/><path d="M960 370 H1020" fill="none" stroke="#2563eb" stroke-width="5" marker-end="url(#a)"/><path d="M1280 370 H1340" fill="none" stroke="#2563eb" stroke-width="5" marker-end="url(#a)"/>
</svg>
