<svg xmlns="http://www.w3.org/2000/svg" viewBox="0 0 1600 900" width="1600" height="900">
  <style>text{font-family:SimSun,'宋体',serif;font-size:40px;fill:#172033}.title{font-weight:700}</style>
  <defs><marker id="a" markerWidth="8" markerHeight="6" refX="7" refY="3" orient="auto"><polygon points="0 0,8 3,0 6" fill="#2563eb"/></marker></defs>
  <rect width="1600" height="900" fill="#ffffff"/>
  <text x="800" y="65" text-anchor="middle" font-size="52" class="title">OpenStack逻辑架构</text>
  <rect x="90" y="120" width="1420" height="150" rx="26" fill="#eff6ff" stroke="#60a5fa" stroke-width="4"/>
  <text x="220" y="207" text-anchor="middle" font-size="46" class="title">访问层</text>
  <g font-size="42"><text x="490" y="190" text-anchor="middle">Horizon</text><text x="760" y="190" text-anchor="middle">命令行</text><text x="1030" y="190" text-anchor="middle">REST API</text><text x="1300" y="190" text-anchor="middle">SDK</text></g>
  <rect x="90" y="330" width="1420" height="300" rx="26" fill="#f0fdfa" stroke="#2dd4bf" stroke-width="4"/>
  <text x="220" y="475" text-anchor="middle" font-size="46" class="title">控制层</text>
  <g font-size="40" text-anchor="middle"><rect x="350" y="375" width="230" height="90" rx="18" fill="#ffffff" stroke="#14b8a6" stroke-width="3"/><text x="465" y="432">Keystone</text><rect x="620" y="375" width="230" height="90" rx="18" fill="#ffffff" stroke="#14b8a6" stroke-width="3"/><text x="735" y="432">Nova</text><rect x="890" y="375" width="230" height="90" rx="18" fill="#ffffff" stroke="#14b8a6" stroke-width="3"/><text x="1005" y="432">Neutron</text><rect x="1160" y="375" width="230" height="90" rx="18" fill="#ffffff" stroke="#14b8a6" stroke-width="3"/><text x="1275" y="432">存储服务</text></g>
  <g text-anchor="middle"><rect x="350" y="495" width="310" height="100" rx="18" fill="#ecfeff" stroke="#06b6d4" stroke-width="3"/><text x="505" y="560" font-size="40">数据库</text><rect x="700" y="495" width="310" height="100" rx="18" fill="#ecfeff" stroke="#06b6d4" stroke-width="3"/><text x="855" y="535" font-size="38">RabbitMQ</text><text x="855" y="578" font-size="38">消息队列</text><rect x="1050" y="495" width="340" height="100" rx="18" fill="#ecfeff" stroke="#06b6d4" stroke-width="3"/><text x="1220" y="560" font-size="38">缓存与服务目录</text></g>
  <rect x="90" y="690" width="1420" height="140" rx="26" fill="#fff7ed" stroke="#fb923c" stroke-width="4"/>
  <text x="220" y="775" text-anchor="middle" font-size="46" class="title">资源层</text>
  <g font-size="42"><text x="500" y="765" text-anchor="middle">计算节点与虚拟机</text><text x="910" y="765" text-anchor="middle">网络设备与虚拟网络</text><text x="1300" y="765" text-anchor="middle">块存储与对象存储</text></g>
  <g fill="none" stroke="#2563eb" stroke-width="5" marker-end="url(#a)"><path d="M800 270 V320"/><path d="M800 630 V680"/></g>
</svg>
